<svg xmlns="http://www.w3.org/2000/svg" version="1.1" xmlns:xlink="http://www.w3.org/1999/xlink" xmlns:svgjs="http://svgjs.dev/svgjs" width="1500" height="405" viewBox="0 0 1500 405"><g transform="matrix(1,0,0,1,-0.9090909090909918,0.7542068966162105)"><svg viewBox="0 0 396 107" data-background-color="#0daa58" preserveAspectRatio="xMidYMid meet" height="405" width="1500" xmlns="http://www.w3.org/2000/svg" xmlns:xlink="http://www.w3.org/1999/xlink"><g id="tight-bounds" transform="matrix(1,0,0,1,0.2400000000000091,-0.199259599846755)"><svg viewBox="0 0 395.52 107.39851919969348" height="107.39851919969348" width="395.52"><g><svg viewBox="0 0 595.4231696015579 161.6797297542356" height="107.39851919969348" width="395.52"><g transform="matrix(1,0,0,1,199.90316960155792,48.45754744771177)"><svg viewBox="0 0 395.52 64.76463485881207" height="64.76463485881207" width="395.52"><g id="textblocktransform"><svg viewBox="0 0 395.52 64.76463485881207" height="64.76463485881207" width="395.52" id="textblock"><g><svg viewBox="0 0 395.52 64.76463485881207" height="64.76463485881207" width="395.52"><g transform="matrix(1,0,0,1,0,0)"><svg width="395.52" viewBox="4.35 -37.9 308.08 50.45" height="64.76463485881207" data-palette-color="#f3ecf2"><path d="M33.65-37.9L42.8-37.9 42.8 0 34.85 0 34.85-26.45 25.5-13 21.5-13 12.3-26.35 12.3 0 4.35 0 4.35-37.9 13.45-37.9 23.55-23.05 33.65-37.9ZM67.9-28.15L75.4-28.15 63.9 4.45Q62.8 7.6 61.4 9.35 60 11.1 58.15 11.83 56.3 12.55 53.55 12.55L53.55 12.55Q51.15 12.55 49.2 11.9L49.2 11.9 49.2 5.3Q50.7 5.7 52.25 5.7L52.25 5.7Q54.2 5.7 55.37 4.9 56.55 4.1 57.35 1.8L57.35 1.8 57.95 0.05 48.15-28.15 56.05-28.15 61.7-10.6 67.9-28.15ZM121.04-37.9L130.19-37.9 130.19 0 122.24 0 122.24-26.45 112.89-13 108.89-13 99.69-26.35 99.69 0 91.74 0 91.74-37.9 100.84-37.9 110.94-23.05 121.04-37.9ZM148.69-28.15Q153.94-28.15 156.64-26.68 159.34-25.2 160.24-22.75 161.14-20.3 161.14-16.5L161.14-16.5 161.14 0 153.44 0 153.44-2.4Q151.64-0.75 149.92-0.05 148.19 0.65 146.09 0.65L146.09 0.65Q141.49 0.65 138.79-1.88 136.09-4.4 136.09-8.85L136.09-8.85Q136.09-13.4 138.87-15.85 141.64-18.3 146.54-18.3L146.54-18.3Q150.49-18.3 153.44-16.8L153.44-16.8Q153.39-18.45 152.99-19.43 152.59-20.4 151.42-20.93 150.24-21.45 147.94-21.45L147.94-21.45 142.74-21.45 142.74-28.15 148.69-28.15ZM147.64-5.4Q150.44-5.4 153.44-7.9L153.44-7.9 153.44-11.45Q150.84-12.7 148.29-12.7L148.29-12.7Q146.29-12.7 145.09-11.8 143.89-10.9 143.89-8.95L143.89-8.95Q143.89-5.4 147.64-5.4L147.64-5.4ZM183.89-28.75Q189.39-28.75 192.11-25.93 194.84-23.1 194.84-16.9L194.84-16.9 194.84 0 187.14 0 187.14-16.9Q187.14-19.4 186.04-20.63 184.94-21.85 182.24-21.85L182.24-21.85Q179.04-21.85 175.84-19.2L175.84-19.2 175.84 0 168.14 0 168.14-28.15 175.84-28.15 175.84-25.7Q179.54-28.75 183.89-28.75L183.89-28.75ZM212.49-28.15Q217.74-28.15 220.44-26.68 223.14-25.2 224.04-22.75 224.94-20.3 224.94-16.5L224.94-16.5 224.94 0 217.24 0 217.24-2.4Q215.44-0.75 213.71-0.05 211.99 0.65 209.89 0.65L209.89 0.65Q205.29 0.65 202.59-1.88 199.89-4.4 199.89-8.85L199.89-8.85Q199.89-13.4 202.66-15.85 205.44-18.3 210.34-18.3L210.34-18.3Q214.29-18.3 217.24-16.8L217.24-16.8Q217.19-18.45 216.79-19.43 216.39-20.4 215.21-20.93 214.04-21.45 211.74-21.45L211.74-21.45 206.54-21.45 206.54-28.15 212.49-28.15ZM211.44-5.4Q214.24-5.4 217.24-7.9L217.24-7.9 217.24-11.45Q214.64-12.7 212.09-12.7L212.09-12.7Q210.09-12.7 208.89-11.8 207.69-10.9 207.69-8.95L207.69-8.95Q207.69-5.4 211.44-5.4L211.44-5.4ZM250.53-28.15L258.23-28.15 258.23 0.05Q258.23 5.65 254.96 9.1 251.68 12.55 245.38 12.55L245.38 12.55Q241.53 12.55 238.63 12.15 235.73 11.75 233.13 10.75L233.13 10.75 233.13 3.6Q235.68 4.7 238.28 5.2 240.88 5.7 242.98 5.7L242.98 5.7Q247.13 5.7 248.83 4.15 250.53 2.6 250.53-0.45L250.53-0.45 250.53-3Q246.78-0.15 242.83-0.15L242.83-0.15Q236.98-0.15 233.48-3.7 229.98-7.25 229.98-14.55L229.98-14.55Q229.98-19.2 231.63-22.45 233.28-25.7 236.18-27.33 239.08-28.95 242.83-28.95L242.83-28.95Q246.83-28.95 250.53-26.05L250.53-26.05 250.53-28.15ZM244.38-7Q247.28-7 250.53-9.3L250.53-9.3 250.53-19.8Q247.38-22.05 244.38-22.05L244.38-22.05Q241.23-22.05 239.61-20.1 237.98-18.15 237.98-14.55L237.98-14.55Q237.98-10.55 239.56-8.78 241.13-7 244.38-7L244.38-7ZM271.98-11.95Q272.88-5.6 279.88-5.6L279.88-5.6Q281.78-5.6 283.61-6.1 285.43-6.6 287.73-7.7L287.73-7.7 289.78-1.7Q287.23-0.3 284.71 0.28 282.18 0.85 278.88 0.85L278.88 0.85Q274.08 0.85 270.68-1.03 267.28-2.9 265.53-6.28 263.78-9.65 263.78-14.1L263.78-14.1Q263.78-18.8 265.58-22.15 267.38-25.5 270.48-27.23 273.58-28.95 277.38-28.95L277.38-28.95Q283.43-28.95 286.86-25.4 290.28-21.85 290.28-15L290.28-15 290.28-11.95 271.98-11.95ZM277.38-22.5Q275.28-22.5 273.96-21.4 272.63-20.3 272.13-17.8L272.13-17.8 282.23-17.8Q281.98-20.25 280.78-21.38 279.58-22.5 277.38-22.5L277.38-22.5ZM311.28-28.75L312.43-28.75 312.43-21.85 311.28-21.85Q307.33-21.85 303.43-18.95L303.43-18.95 303.43 0 295.73 0 295.73-28.15 303.43-28.15 303.43-25.45Q307.28-28.75 311.28-28.75L311.28-28.75Z" opacity="1" transform="matrix(1,0,0,1,0,0)" fill="#f3ecf2" class="wordmark-text-0" data-fill-palette-color="primary" id="text-0"></path></svg></g></svg></g></svg></g></svg></g><g><svg viewBox="0 0 161.6797297542356 161.6797297542356" height="161.6797297542356" width="161.6797297542356"><g><svg viewBox="0 0 161.6797297542356 161.6797297542356" height="161.6797297542356" width="161.6797297542356"><g transform="matrix(1,0,0,1,68.90064418281116,42.731587113908326)"><svg viewBox="0 0 23.878441388613272 76.21655552641896" height="76.21655552641896" width="23.878441388613272"><g><svg xmlns="http://www.w3.org/2000/svg" xmlns:xlink="http://www.w3.org/1999/xlink" version="1.1" x="0" y="0" viewBox="34.47101857571802 0.925 30.757962848563977 98.175" enable-background="new 0 0 100 100" xml:space="preserve" height="76.21655552641896" width="23.878441388613272" class="icon-cg-0" data-fill-palette-color="accent" id="cg-0"><path d="M37.5 29.3c3.2-2.3 7-3.9 7-3.9l2.9 9.3 1.7-4.9c-3.1-4.3 0.4-4.4 0.8-4.4 0.5 0 3.9 0.1 0.8 4.4l1.7 4.9 2.9-9.3c0 0 3.9 1.6 7 3.9 0.8 0.6 1.2 1 1.9 1.7 1.7 1.7 1 11.9 0 15.6s-4 9-4 9c-0.6 1.4-1 2.8-1.1 4.3L55.6 97c-0.1 1.2-1.1 2.1-2.3 2.1H50h-3.3c-1.2 0-2.2-0.9-2.3-2.1l-3.8-37.1c-0.1-1.5-0.5-2.9-1.1-4.3 0 0-3-5.3-4-9-1-3.7-1.7-13.8 0-15.6C36.3 30.3 36.7 29.9 37.5 29.3zM39.1 15l1.4-0.6c-0.3-1.3-0.3-2.6 0-4l-1.4-0.6c-0.5-0.2-0.8-0.8-0.6-1.3l0.6-1.5c0.2-0.5 0.8-0.8 1.3-0.6l1.4 0.6c0.7-1.1 1.7-2.1 2.8-2.8l-0.6-1.4c-0.2-0.5 0-1.1 0.6-1.3L46.1 1c0.5-0.2 1.1 0 1.3 0.6L48.1 3c1.3-0.3 2.6-0.3 3.9 0l0.6-1.4C52.8 1 53.4 0.8 53.9 1l1.5 0.6c0.5 0.2 0.8 0.8 0.6 1.3l-0.6 1.4c1.1 0.7 2.1 1.7 2.8 2.8l1.4-0.6c0.5-0.2 1.1 0 1.3 0.6l0.6 1.5c0.2 0.5 0 1.1-0.6 1.3l-1.4 0.6c0.3 1.3 0.3 2.6 0 3.9l1.4 0.6c0.5 0.2 0.8 0.8 0.6 1.3l-0.6 1.5c-0.2 0.5-0.8 0.8-1.3 0.6l-1.4-0.6c-0.7 1.1-1.7 2.1-2.8 2.8l0.6 1.4c0.2 0.5 0 1.1-0.6 1.3L53.9 24c-0.5 0.2-1.1 0-1.3-0.6L52 22c-1.3 0.3-2.6 0.3-4 0l-0.6 1.4c-0.2 0.5-0.8 0.8-1.3 0.6l-1.5-0.6c-0.5-0.2-0.8-0.8-0.6-1.3l0.6-1.4c-1.1-0.8-2.1-1.7-2.8-2.8l-1.4 0.6c-0.5 0.2-1.1 0-1.3-0.6l-0.6-1.5C38.3 15.8 38.5 15.2 39.1 15zM48 17.3c2.7 1.1 5.8-0.1 6.9-2.8 1.1-2.7-0.1-5.8-2.8-6.9-2.7-1.1-5.8 0.1-6.9 2.8C44 13.1 45.3 16.2 48 17.3z" fill="#e0d3de" data-fill-palette-color="accent"></path></svg></g></svg></g><g id="text-0"><path d="M3.744 47.139l1.085-3 12.394 4.482-0.943 2.607-8.656-3.13 3.294 4.649-0.471 1.303-5.45 1.433 8.617 3.116-0.943 2.607-12.393-4.482 1.078-2.981 6.046-1.553z" fill="#e0d3de" data-fill-palette-color="accent"></path><path d="M19.187 28.439l1.618-2.047 6.421 10.17c0.41 0.653 0.674 1.235 0.792 1.743 0.122 0.503 0.114 0.978-0.022 1.425-0.138 0.437-0.404 0.906-0.8 1.407v0c-0.341 0.432-0.712 0.78-1.112 1.044v0l-1.799-1.422c0.29-0.213 0.546-0.461 0.77-0.743v0c0.282-0.357 0.433-0.701 0.452-1.033 0.025-0.327-0.117-0.729-0.424-1.205v0l-0.339-0.541-9.818-3.408 1.707-2.159 6.01 2.243z" fill="#e0d3de" data-fill-palette-color="accent"></path><path d="M50.603 2.038l2.902-1.325 5.476 11.987-2.522 1.152-3.824-8.372-1.014 5.607-1.261 0.575-4.838-2.888 3.807 8.335-2.522 1.151-5.475-11.988 2.884-1.316 5.341 3.23z" fill="#e0d3de" data-fill-palette-color="accent"></path><path d="M72.464 0.204c1.209-0.135 2.143-0.065 2.803 0.21 0.659 0.268 1.125 0.674 1.397 1.219 0.272 0.537 0.457 1.245 0.555 2.122v0l0.636 5.703-2.664 0.297-0.093-0.83c-0.37 0.424-0.745 0.739-1.125 0.946-0.38 0.207-0.814 0.337-1.3 0.391v0c-1.06 0.118-1.933-0.078-2.62-0.59-0.686-0.511-1.086-1.28-1.2-2.307v0c-0.117-1.047 0.114-1.89 0.692-2.528 0.572-0.638 1.425-1.02 2.559-1.147v0c0.905-0.101 1.718-0.014 2.439 0.261v0c-0.056-0.383-0.141-0.682-0.253-0.895-0.119-0.212-0.321-0.364-0.605-0.455-0.284-0.091-0.692-0.107-1.226-0.048v0l-1.793 0.2-0.259-2.32zM72.977 8.115c0.648-0.072 1.284-0.437 1.908-1.095v0l-0.136-1.225c-0.633-0.217-1.243-0.292-1.83-0.227v0c-0.459 0.051-0.816 0.194-1.071 0.427-0.254 0.24-0.355 0.587-0.304 1.039v0c0.091 0.817 0.569 1.177 1.433 1.081z" fill="#e0d3de" data-fill-palette-color="accent"></path><path d="M95.903 0.97c1.261 0.205 2.151 0.68 2.67 1.425 0.518 0.752 0.662 1.835 0.433 3.25v0l-0.943 5.805-2.646-0.429 0.943-5.805c0.093-0.57 0.038-1.016-0.165-1.338-0.209-0.323-0.622-0.535-1.239-0.635v0c-0.731-0.119-1.512 0.068-2.342 0.559v0l-1.07 6.59-2.646-0.43 1.57-9.668 2.646 0.43-0.138 0.845c0.958-0.56 1.934-0.76 2.927-0.599z" fill="#e0d3de" data-fill-palette-color="accent"></path><path d="M116.011 7.848c1.098 0.523 1.855 1.076 2.27 1.658 0.418 0.576 0.599 1.166 0.544 1.772-0.053 0.6-0.269 1.298-0.649 2.096v0l-2.469 5.18-2.42-1.153 0.36-0.755c-0.538 0.165-1.023 0.235-1.455 0.21-0.432-0.025-0.869-0.143-1.311-0.354v0c-0.963-0.459-1.601-1.087-1.913-1.883-0.313-0.796-0.247-1.661 0.197-2.593v0c0.453-0.951 1.094-1.545 1.922-1.783 0.822-0.24 1.749-0.115 2.779 0.376v0c0.822 0.392 1.467 0.895 1.934 1.51v0c0.154-0.355 0.24-0.653 0.257-0.894 0.011-0.243-0.08-0.479-0.273-0.706-0.193-0.227-0.531-0.457-1.016-0.688v0l-1.629-0.776 1.004-2.107zM112.272 14.839c0.589 0.281 1.322 0.306 2.199 0.077v0l0.531-1.113c-0.423-0.518-0.902-0.904-1.435-1.158v0c-0.417-0.199-0.795-0.266-1.135-0.202-0.342 0.07-0.611 0.311-0.807 0.722v0c-0.354 0.742-0.138 1.3 0.647 1.674z" fill="#e0d3de" data-fill-palette-color="accent"></path><path d="M136.132 21.709l2.015 1.768-6.476 7.377c-0.856 0.975-1.835 1.513-2.936 1.613-1.096 0.095-2.194-0.339-3.291-1.302v0c-0.669-0.587-1.227-1.136-1.675-1.647-0.443-0.515-0.815-1.059-1.117-1.631v0l1.641-1.869c0.278 0.579 0.607 1.111 0.985 1.597 0.369 0.486 0.737 0.891 1.104 1.214v0c0.725 0.637 1.355 0.95 1.889 0.938 0.534-0.011 1.034-0.281 1.5-0.812v0l0.585-0.667c-1.088-0.078-1.977-0.42-2.667-1.025v0c-1.021-0.897-1.565-1.921-1.63-3.072-0.07-1.156 0.455-2.372 1.576-3.649v0c0.708-0.807 1.457-1.366 2.245-1.677 0.784-0.316 1.554-0.395 2.31-0.237 0.752 0.163 1.455 0.531 2.109 1.105v0c0.694 0.61 1.144 1.452 1.349 2.527v0zM129.669 25.827c0.506 0.444 1.217 0.715 2.133 0.815v0l2.414-2.75c-0.206-0.877-0.57-1.545-1.091-2.002v0c-0.551-0.484-1.118-0.678-1.699-0.583-0.586 0.091-1.153 0.448-1.7 1.071v0c-0.614 0.7-0.92 1.326-0.918 1.88 0.007 0.548 0.294 1.072 0.861 1.569z" fill="#e0d3de" data-fill-palette-color="accent"></path><path d="M143.405 39.107c-1.129 0.971-1.256 2.141-0.382 3.51v0c0.238 0.372 0.519 0.705 0.843 0.997 0.324 0.293 0.74 0.596 1.246 0.91v0l-1.377 1.726c-0.593-0.323-1.103-0.698-1.53-1.127-0.429-0.419-0.849-0.95-1.258-1.591v0c-0.6-0.939-0.929-1.858-0.987-2.756-0.058-0.898 0.133-1.73 0.571-2.494 0.439-0.764 1.094-1.425 1.964-1.981v0c0.922-0.589 1.823-0.915 2.702-0.976 0.876-0.068 1.677 0.094 2.403 0.485 0.726 0.391 1.324 0.956 1.796 1.694v0c0.757 1.185 1.004 2.334 0.739 3.447-0.265 1.113-1.067 2.097-2.407 2.953v0l-0.893 0.571zM147.507 38.712c-0.26-0.407-0.581-0.669-0.963-0.788-0.38-0.128-0.848-0.083-1.403 0.134v0l1.894 2.963c0.448-0.359 0.706-0.725 0.773-1.099 0.073-0.377-0.027-0.781-0.301-1.21z" fill="#e0d3de" data-fill-palette-color="accent"></path><path d="M158.766 58.452l0.125 0.377-2.273 0.756-0.125-0.377c-0.29-0.87-0.896-1.628-1.82-2.273v0l-6.257 2.081-0.847-2.543 9.295-3.092 0.846 2.543-0.89 0.296c1.003 0.604 1.652 1.348 1.946 2.232z" fill="#e0d3de" data-fill-palette-color="accent"></path><path d="M19.324 108.498l1.081 2.991-12.394 4.481-0.939-2.597 8.646-3.126-5.496-1.471-0.475-1.313 3.277-4.577-8.617 3.116-0.943-2.607 12.394-4.482 1.078 2.981-3.668 5.055z" fill="#e0d3de" data-fill-palette-color="accent"></path><path d="M26.866 126.76l1.618 2.047-11.376 3.886c-0.726 0.254-1.351 0.379-1.873 0.376-0.522-0.003-0.98-0.122-1.373-0.357-0.399-0.23-0.796-0.596-1.192-1.097v0c-0.346-0.437-0.599-0.878-0.76-1.322v0l1.799-1.423c0.146 0.327 0.33 0.631 0.554 0.914v0c0.282 0.357 0.58 0.585 0.892 0.685 0.312 0.099 0.736 0.055 1.271-0.134v0l0.598-0.213 5.581-8.751 1.707 2.159-3.568 5.315z" fill="#e0d3de" data-fill-palette-color="accent"></path><path d="M57.488 144.165l2.893 1.321-5.476 11.988-2.512-1.148 3.82-8.363-4.897 2.896-1.271-0.581-0.975-5.543-3.807 8.334-2.521-1.152 5.475-11.987 2.884 1.317 1.042 6.157z" fill="#e0d3de" data-fill-palette-color="accent"></path><path d="M73.55 151.339c1.209 0.135 2.105 0.406 2.688 0.813 0.584 0.407 0.948 0.906 1.095 1.496 0.14 0.583 0.161 1.314 0.063 2.192v0l-0.636 5.703-2.654-0.297 0.092-0.83c-0.461 0.331-0.896 0.556-1.306 0.675-0.417 0.118-0.868 0.149-1.354 0.095v0c-1.06-0.118-1.869-0.503-2.425-1.153-0.556-0.65-0.777-1.488-0.663-2.515v0c0.117-1.047 0.528-1.818 1.233-2.314 0.697-0.49 1.61-0.672 2.737-0.545v0c0.912 0.102 1.689 0.363 2.333 0.783v0c0.029-0.38 0.009-0.69-0.06-0.93-0.063-0.233-0.223-0.425-0.479-0.576-0.257-0.152-0.652-0.257-1.185-0.317v0l-1.793-0.2 0.257-2.31zM72.308 159.159c0.642 0.072 1.343-0.144 2.103-0.648v0l0.137-1.225c-0.569-0.351-1.148-0.559-1.736-0.625v0c-0.459-0.051-0.839 0.009-1.138 0.181-0.3 0.178-0.476 0.494-0.526 0.946v0c-0.091 0.817 0.295 1.274 1.16 1.371z" fill="#e0d3de" data-fill-palette-color="accent"></path><path d="M94.268 150.226c1.261-0.205 2.256-0.032 2.986 0.517 0.728 0.543 1.207 1.522 1.437 2.936v0l0.942 5.805-2.646 0.43-0.942-5.805c-0.093-0.57-0.286-0.976-0.58-1.217-0.3-0.234-0.758-0.3-1.375-0.2v0c-0.731 0.119-1.413 0.539-2.046 1.261v0l1.07 6.59-2.646 0.43-1.568-9.659 2.646-0.429 0.135 0.835c0.732-0.835 1.594-1.333 2.587-1.494z" fill="#e0d3de" data-fill-palette-color="accent"></path><path d="M111.801 144.586c1.098-0.523 2.002-0.766 2.712-0.729 0.711 0.038 1.284 0.269 1.72 0.694 0.427 0.421 0.83 1.031 1.21 1.828v0l2.469 5.18-2.411 1.149-0.36-0.754c-0.217 0.525-0.468 0.946-0.753 1.262-0.292 0.32-0.658 0.585-1.1 0.795v0c-0.963 0.459-1.852 0.559-2.668 0.301-0.816-0.259-1.446-0.854-1.891-1.786v0c-0.453-0.951-0.511-1.823-0.173-2.616 0.334-0.784 1.013-1.42 2.037-1.908v0c0.828-0.395 1.626-0.583 2.395-0.566v0c-0.176-0.338-0.357-0.59-0.542-0.758-0.176-0.164-0.413-0.243-0.711-0.237-0.298 0.007-0.689 0.125-1.174 0.357v0l-1.628 0.776-1-2.098zM114.872 151.884c0.583-0.278 1.064-0.831 1.445-1.66v0l-0.531-1.113c-0.669 0.003-1.27 0.131-1.803 0.385v0c-0.417 0.199-0.708 0.45-0.872 0.754-0.161 0.31-0.143 0.671 0.053 1.082v0c0.354 0.742 0.923 0.926 1.708 0.552z" fill="#e0d3de" data-fill-palette-color="accent"></path><path d="M129.668 132.211l2.014-1.768 6.469 7.369c0.856 0.975 1.261 2.013 1.213 3.112-0.038 1.1-0.606 2.132-1.704 3.096v0c-0.674 0.592-1.29 1.074-1.849 1.447-0.568 0.372-1.156 0.671-1.763 0.897v0l-1.641-1.869c0.61-0.201 1.181-0.458 1.712-0.77 0.526-0.308 0.972-0.623 1.34-0.946v0c0.725-0.637 1.117-1.215 1.174-1.736 0.059-0.531-0.145-1.062-0.611-1.593v0l-0.585-0.666c-0.214 1.065-0.665 1.9-1.355 2.504v0c-1.021 0.897-2.107 1.303-3.257 1.218-1.155-0.08-2.291-0.756-3.407-2.027v0c-0.713-0.812-1.172-1.629-1.379-2.451-0.212-0.818-0.188-1.589 0.071-2.314 0.255-0.73 0.709-1.382 1.363-1.955v0c0.695-0.61 1.585-0.944 2.672-1.004v0zM132.915 139.14c0.506-0.444 0.864-1.111 1.076-2.003v0l-2.407-2.743c-0.892 0.086-1.598 0.358-2.119 0.816v0c-0.552 0.484-0.82 1.018-0.804 1.602 0.014 0.593 0.297 1.204 0.848 1.832v0c0.61 0.695 1.189 1.076 1.738 1.145 0.545 0.064 1.101-0.152 1.668-0.649z" fill="#e0d3de" data-fill-palette-color="accent"></path><path d="M144.647 122.956c1.356 0.616 2.471 0.24 3.346-1.128v0c0.234-0.366 0.418-0.761 0.551-1.184 0.13-0.417 0.228-0.919 0.296-1.504v0l2.145 0.524c-0.043 0.674-0.168 1.292-0.374 1.853-0.2 0.566-0.507 1.172-0.921 1.819v0c-0.596 0.933-1.29 1.615-2.08 2.045-0.791 0.43-1.625 0.606-2.504 0.529-0.878-0.077-1.752-0.394-2.622-0.95v0c-0.916-0.585-1.59-1.266-2.022-2.042-0.43-0.766-0.619-1.561-0.569-2.383 0.05-0.823 0.311-1.604 0.783-2.343v0c0.757-1.185 1.695-1.889 2.812-2.11 1.127-0.224 2.357 0.091 3.691 0.944v0l0.893 0.571zM142.565 119.4c-0.26 0.407-0.365 0.811-0.315 1.213 0.047 0.393 0.286 0.796 0.716 1.208v0l1.893-2.963c-0.514-0.256-0.955-0.336-1.322-0.24-0.373 0.092-0.697 0.353-0.972 0.782z" fill="#e0d3de" data-fill-palette-color="accent"></path><path d="M149.077 99.605l0.129-0.387 2.283 0.759-0.129 0.387c-0.287 0.864-0.258 1.83 0.089 2.897v0l6.257 2.082-0.846 2.544-9.285-3.089 0.846-2.544 0.89 0.296c-0.448-1.087-0.526-2.069-0.234-2.945z" fill="#e0d3de" data-fill-palette-color="accent"></path><path d="M0 80.636c0-2.78 2.254-5.034 5.034-5.035 2.78 0 5.034 2.254 5.035 5.035 0 2.78-2.254 5.034-5.035 5.034-2.78 0-5.034-2.254-5.034-5.034z" fill="#e0d3de" data-fill-palette-color="accent"></path><path d="M151.611 80.636c0-2.78 2.254-5.034 5.034-5.035 2.78 0 5.034 2.254 5.035 5.035 0 2.78-2.254 5.034-5.035 5.034-2.78 0-5.034-2.254-5.034-5.034z" fill="#e0d3de" data-fill-palette-color="accent"></path></g><g id="text-1"></g></svg></g></svg></g></svg></g><defs></defs></svg><rect width="395.52" height="107.39851919969348" fill="none" stroke="none" visibility="hidden"></rect></g></svg></g></svg>